<svg class="svg-icon" style="width: 1em; height: 1em;vertical-align: middle;fill: currentColor;overflow: hidden;" viewBox="0 0 1024 1024" version="1.1" xmlns="http://www.w3.org/2000/svg"><path d="M519.744 382.72c19.712 7.872 64.384 25.216 124.544 45.184 1.792-60.672-15.936-145.472-50.88-241.92C562.112 99.584 524.224 25.856 503.488 0c-48.192 0.768-95.296 8.128-140.736 22.016C388.928 68.8 464.704 211.2 519.744 382.72z m388.48 358.784c-38.592 0-80.128-4.16-124.352-12.48-62.208-11.712-130.048-31.744-201.472-59.392-121.152-46.912-210.048-99.136-213.824-101.312-0.832-0.576-1.728-1.152-2.496-1.728-32.64 34.496-70.464 76.608-108.608 123.712 11.712 11.52 70.208 66.88 162.56 117.632 94.4 51.904 244.864 109.568 425.472 89.664 1.152-0.128 2.24-0.192 3.328-0.128 8.576-7.552 17.024-15.36 25.152-23.488 40.192-40.192 72.96-86.08 97.728-136.576-20.096 2.688-41.28 4.096-63.488 4.096zM655.616 487.168c-72.448-23.232-126.976-44.16-152.128-54.208-17.92 15.872-54.656 49.28-99.776 94.72 24.704 13.888 101.824 55.744 198.4 93.12 152.704 59.008 284.608 80.192 381.44 61.248 3.904-0.768 7.744-0.64 11.328 0.256 12.736-35.968 21.248-73.088 25.664-110.976-137.408-16.96-274.112-55.04-364.928-84.16z m230.656 7.744c44.928 9.664 91.328 17.92 137.664 23.744 0.064-2.24 0.064-4.48 0.064-6.72 0-69.12-13.568-136.192-40.256-199.296-25.792-60.992-62.72-115.712-109.696-162.752a512.934 512.934 0 0 0-61.824-52.736c36.288 73.536 76.928 200.512 74.048 397.76zM337.408 520.32c59.136-61.696 108.096-106.304 130.624-126.272-14.4-44.544-30.4-87.168-46.464-126.528-25.792 11.328-75.2 36.48-132.16 82.752-75.2 61.12-178.944 172.416-250.496 357.696l1.344 3.264c16.128 38.08 36.544 73.728 61.056 106.56C174.848 699.2 268.992 591.744 337.408 520.32z m255.296 411.968c-68.096-16.896-135.296-43.52-199.68-79.104-89.728-49.6-148.416-102.208-168.256-121.216-30.848 40.512-60.992 83.84-87.808 128.512 4.288 4.544 8.576 9.088 12.992 13.504 47.04 47.04 101.76 83.904 162.752 109.696 63.104 26.688 130.176 40.256 199.296 40.256s136.128-13.568 199.296-40.256c20.224-8.576 39.808-18.368 58.624-29.376-59.328-0.128-118.656-7.488-177.216-22.016z m50.24-764.224c23.296 64.256 60.48 184.192 53.184 276.48 41.728 12.928 88.384 26.176 137.664 38.208 0.896-163.392-30.016-272.128-56.448-335.104-27.968-66.56-56.128-95.36-56.384-95.68-3.072-3.072-5.248-6.656-6.528-10.496-1.024-0.448-2.112-0.896-3.136-1.344C665.472 20.8 617.6 8.384 568.384 3.008c24.064 41.28 51.584 101.696 74.56 165.056zM115.328 457.728c42.368-57.216 90.496-107.712 143.168-150.208 60.992-49.152 113.728-76.032 142.528-88.576-39.552-90.304-76.16-156.992-88.448-178.688-60.928 25.792-115.584 62.656-162.56 109.632-47.04 47.04-83.904 101.76-109.696 162.752C13.568 375.744 0 442.816 0 511.936c0 40.64 4.672 80.576 13.952 119.424 28.672-63.04 62.592-121.216 101.376-173.632z m0 0" fill="" /></svg>